TITLE ""
FILE "Step1_Track21.mp3" MP3
  TRACK 01 AUDIO
    TITLE "Step1_Track21_01"
    INDEX 01 00:00:00
  TRACK 02 AUDIO
    TITLE "Step1_Track21_02"
    INDEX 01 00:00:24
  TRACK 03 AUDIO
    TITLE "Step1_Track21_03"
    INDEX 01 00:01:72
  TRACK 04 AUDIO
    TITLE "Step1_Track21_04"
    INDEX 01 00:02:46
  TRACK 05 AUDIO
    TITLE "Step1_Track21_05"
    INDEX 01 00:03:38
  TRACK 06 AUDIO
    TITLE "Step1_Track21_06"
    INDEX 01 00:03:50
  TRACK 07 AUDIO
    TITLE "Step1_Track21_07"
    INDEX 01 00:06:03
  TRACK 08 AUDIO
    TITLE "Step1_Track21_08"
    INDEX 01 00:06:21
  TRACK 09 AUDIO
    TITLE "Step1_Track21_09"
    INDEX 01 00:07:12
  TRACK 10 AUDIO
    TITLE "Step1_Track21_10"
    INDEX 01 00:07:14
  TRACK 11 AUDIO
    TITLE "Step1_Track21_11"
    INDEX 01 00:09:21
  TRACK 12 AUDIO
    TITLE "Step1_Track21_12"
    INDEX 01 00:09:48
  TRACK 13 AUDIO
    TITLE "Step1_Track21_13"
    INDEX 01 00:10:46
  TRACK 14 AUDIO
    TITLE "Step1_Track21_14"
    INDEX 01 00:10:48
  TRACK 15 AUDIO
    TITLE "Step1_Track21_15"
    INDEX 01 00:12:59
  TRACK 16 AUDIO
    TITLE "Step1_Track21_16"
    INDEX 01 00:13:13
  TRACK 17 AUDIO
    TITLE "Step1_Track21_17"
    INDEX 01 00:14:12
  TRACK 18 AUDIO
    TITLE "Step1_Track21_18"
    INDEX 01 00:14:14
  TRACK 19 AUDIO
    TITLE "Step1_Track21_19"
    INDEX 01 00:16:13
  TRACK 20 AUDIO
    TITLE "Step1_Track21_20"
    INDEX 01 00:16:43
  TRACK 21 AUDIO
    TITLE "Step1_Track21_21"
    INDEX 01 00:17:50
  TRACK 22 AUDIO
    TITLE "Step1_Track21_22"
    INDEX 01 00:17:52
  TRACK 23 AUDIO
    TITLE "Step1_Track21_23"
    INDEX 01 00:20:29
  TRACK 24 AUDIO
    TITLE "Step1_Track21_24"
    INDEX 01 00:20:50
  TRACK 25 AUDIO
    TITLE "Step1_Track21_25"
    INDEX 01 00:21:54
  TRACK 26 AUDIO
    TITLE "Step1_Track21_26"
    INDEX 01 00:21:56
  TRACK 27 AUDIO
    TITLE "Step1_Track21_27"
    INDEX 01 00:24:07
  TRACK 28 AUDIO
    TITLE "Step1_Track21_28"
    INDEX 01 00:24:25
  TRACK 29 AUDIO
    TITLE "Step1_Track21_29"
    INDEX 01 00:25:28
  TRACK 30 AUDIO
    TITLE "Step1_Track21_30"
    INDEX 01 00:25:34
  TRACK 31 AUDIO
    TITLE "Step1_Track21_31"
    INDEX 01 00:27:68
  TRACK 32 AUDIO
    TITLE "Step1_Track21_32"
    INDEX 01 00:28:24
  TRACK 33 AUDIO
    TITLE "Step1_Track21_33"
    INDEX 01 00:29:16
  TRACK 34 AUDIO
    TITLE "Step1_Track21_34"
    INDEX 01 00:29:41
  TRACK 35 AUDIO
    TITLE "Step1_Track21_35"
    INDEX 01 00:32:18
  TRACK 36 AUDIO
    TITLE "Step1_Track21_36"
    INDEX 01 00:32:38
  TRACK 37 AUDIO
    TITLE "Step1_Track21_37"
    INDEX 01 00:33:43
  TRACK 38 AUDIO
    TITLE "Step1_Track21_38"
    INDEX 01 00:33:47
  TRACK 39 AUDIO
    TITLE "Step1_Track21_39"
    INDEX 01 00:35:67
  TRACK 40 AUDIO
    TITLE "Step1_Track21_40"
    INDEX 01 00:36:06
  TRACK 41 AUDIO
    TITLE "Step1_Track21_41"
    INDEX 01 00:37:06
  TRACK 42 AUDIO
    TITLE "Step1_Track21_42"
    INDEX 01 00:37:08
  TRACK 43 AUDIO
    TITLE "Step1_Track21_43"
    INDEX 01 00:39:65
